<svg version="1.1" xmlns="http://www.w3.org/2000/svg" xmlns:xlink="http://www.w3.org/1999/xlink" width="128px" height="128px" viewBox="0,0,256,256"><g fill="none" fill-rule="nonzero" stroke="none" stroke-width="1" stroke-linecap="butt" stroke-linejoin="miter" stroke-miterlimit="10" stroke-dasharray="" stroke-dashoffset="0" font-family="none" font-weight="none" font-size="none" text-anchor="none" style="mix-blend-mode: normal"><g transform="scale(2,2)"><path d="M50.2,18.2v22c0,10.1 -3.3,19.9 -9.5,27.899l-28.6,37.2c-3.5,6.101 0.9,13.701 8,13.701h87.6c7,0 11.399,-7.6 8,-13.7l-28.5,-37.2c-6.101,-8 -9.5,-17.8 -9.5,-27.899v-22l-27.5,-0.001M45.7,18.2h36.7c2.5,0 4.6,-2.1 4.6,-4.6c0,-2.5 -2.1,-4.6 -4.6,-4.6h-36.7c-2.5,0 -4.6,2.1 -4.6,4.6c0,2.5 2,4.6 4.6,4.6" fill-opacity="0.8" fill="#f6f6f6"></path><path d="M12.2,105.3l18.5,-24.1h66.5l18.5,24.1c2.7,4.7 0.7,10.2 -3.5,12.601h-96.4c-4.3,-2.401 -6.2,-7.901 -3.6,-12.601" fill-opacity="0.92157" fill="#c686c7"></path><path d="M87.2,68.1c-6.101,-8 -9.5,-17.8 -9.5,-27.899v-22h-6v22c0,10.1 2.2,17.6 7.5,27.899l7.255,13.1h10.782z" fill-opacity="0.92157" fill="#e7e7e7"></path><path d="M97.2,81.2h-10.745l13.345,24.1c2.693,4.695 0.709,10.277 -3.585,12.601h15.847h0.112c0.213,-0.116 0.421,-0.24 0.623,-0.372c3.787,-2.562 5.472,-7.757 2.903,-12.229v0l-18.5,-24.1" fill-opacity="0.92941" fill="#ac7ead"></path><path d="M82.4,9h-9.2c2.5,0 4.6,2.1 4.6,4.6c0,2.5 -2.1,4.6 -4.6,4.6h9.2c2.5,0 4.6,-2.1 4.6,-4.6c0,-2.5 -2.1,-4.6 -4.6,-4.6" fill-opacity="0.92157" fill="#e7e7e7"></path><path d="M45.6,93.1c2.541,0 4.6,2.06 4.6,4.601c0,2.54 -2.06,4.6 -4.6,4.6c-2.54,0 -4.6,-2.06 -4.6,-4.6c0,-2.542 2.06,-4.601 4.6,-4.601zM72.9,83.9c-3.03757,0 -5.5,2.46243 -5.5,5.5c0,3.03757 2.46243,5.5 5.5,5.5c3.03757,0 5.5,-2.46243 5.5,-5.5c0,-3.03757 -2.46243,-5.5 -5.5,-5.5z" fill-opacity="0.8" fill="#f6f6f6"></path><path d="M118.4,103.8c0,-0.1 -0.101,-0.2 -0.2,-0.3l-28.6,-37.2c-5.8,-7.5 -8.9,-16.7 -8.9,-26.1v-19h1.6c4.2,0 7.601,-3.4 7.7,-7.6c0,-4.2 -3.4,-7.6 -7.6,-7.6h-36.7c-4.2,0 -7.6,3.4 -7.6,7.6c0,4.2 3.4,7.6 7.6,7.6h1.6v19c0,9.4 -3.2,18.7 -8.9,26.1l-28.6,37.2c-0.1,0.1 -0.1,0.2 -0.2,0.3c-2.1,3.8 -2.1,8.3 0.1,12.101c2.2,3.8 6.1,6.1 10.5,6.1h87.6c4.4,0 8.3,-2.3 10.5,-6.1c2.3,-3.801 2.3,-8.301 0.1,-12.101zM45.7,15.2c-0.9,0 -1.6,-0.7 -1.6,-1.6c0,-0.9 0.7,-1.6 1.6,-1.6h36.6c0.9,0 1.7,0.7 1.7,1.6c0,0.9 -0.7,1.6 -1.6,1.6zM113.1,112.9c-1.1,2 -3.1,3.1 -5.3,3.1h-87.6c-2.2,0 -4.2,-1.2 -5.3,-3.1c-1.1,-1.9 -1.1,-4.101 -0.1,-6l17.4,-22.7l27.1,0.2c1.6,0 2.9,-1.301 2.9,-3c0,-1.601 -1.3,-3 -3,-3l-22.4,-0.2l6.4,-8.3c6.5,-8.4 10.1,-19 10.1,-29.7v-19h21.4v19c0,10.7 3.6,21.2 10.1,29.7l6.4,8.399l-6.9,0.101c-1.6,0.1 -2.9,1.4 -2.9,3.1c0,1.6 1.399,2.9 3,2.9l11.4,-0.2l17.4,22.7c1,1.9 1,4.1 -0.1,6z" fill-opacity="0.83137" fill="#ffffff"></path><path d="M81.5,105c-1.933,0 -3.5,1.567 -3.5,3.5c0,1.933 1.567,3.5 3.5,3.5c1.933,0 3.5,-1.567 3.5,-3.5c0,-1.933 -1.567,-3.5 -3.5,-3.5z" fill-opacity="0.8" fill="#f6f6f6"></path></g></g></svg>