<svg version="1.1" xmlns="http://www.w3.org/2000/svg" xmlns:xlink="http://www.w3.org/1999/xlink" width="24px" height="24px" viewBox="0,0,256,256"><g transform="translate(12.8,12.8) scale(0.9,0.9)"><g fill="#4357a2" fill-rule="nonzero" stroke="none" stroke-width="1" stroke-linecap="butt" stroke-linejoin="miter" stroke-miterlimit="10" stroke-dasharray="" stroke-dashoffset="0" font-family="none" font-weight="none" font-size="none" text-anchor="none" style="mix-blend-mode: normal"><g transform="scale(10.66667,10.66667)"><path d="M19.09619,10h-1.71436l-0.81836,3h1.58105c0.86279,0 1.61133,-0.58447 1.8208,-1.42139l0.0874,-0.35205c0.07471,-0.29736 0.00928,-0.60596 -0.1792,-0.84717c-0.18799,-0.24121 -0.47168,-0.37939 -0.77734,-0.37939z"></path><path d="M7.59619,10h-1.71436l-0.81836,3h1.58105c0.86279,0 1.61133,-0.58447 1.8208,-1.42139l0.0874,-0.35205c0.07471,-0.29736 0.00928,-0.60596 -0.1792,-0.84717c-0.18799,-0.24121 -0.47168,-0.37939 -0.77734,-0.37939z"></path><path d="M12,6c-6.729,0 -12,2.63574 -12,6c0,3.36426 5.271,6 12,6c6.729,0 12,-2.63574 12,-6c0,-3.36426 -5.271,-6 -12,-6zM9.52295,11.46875l-0.0874,0.35205c-0.32129,1.2832 -1.46875,2.1792 -2.79102,2.1792h-1.85352l-0.30859,1.13135c-0.06055,0.22266 -0.26221,0.36865 -0.48193,0.36865c-0.04395,0 -0.08789,-0.00537 -0.13184,-0.01758c-0.2666,-0.07275 -0.42383,-0.34766 -0.35107,-0.61377l1.5,-5.5c0.05957,-0.21777 0.25684,-0.36865 0.48242,-0.36865h2.09619c0.61621,0 1.18652,0.27832 1.56592,0.76416c0.37891,0.48535 0.51074,1.10693 0.36084,1.70459zM14.00049,14c-0.03369,0 -0.06787,-0.00342 -0.10205,-0.01025c-0.27051,-0.05664 -0.44434,-0.32129 -0.38818,-0.59131l0.54248,-2.60937c0.04053,-0.19434 -0.0083,-0.39355 -0.1333,-0.54736c-0.125,-0.15381 -0.31006,-0.2417 -0.5083,-0.2417h-1.76685l-0.65259,3.58936c-0.04346,0.2417 -0.25391,0.41064 -0.49121,0.41064c-0.02979,0 -0.05957,-0.00244 -0.08984,-0.0083c-0.27197,-0.04932 -0.45215,-0.30957 -0.40234,-0.58105l1,-5.5c0.04883,-0.27197 0.31104,-0.45215 0.58105,-0.40234c0.27197,0.04932 0.45215,0.30957 0.40234,0.58105l-0.16559,0.91064h1.58502c0.50049,0 0.96826,0.22266 1.28418,0.61035c0.31543,0.38818 0.43848,0.89209 0.33691,1.38184l-0.54248,2.60938c-0.04932,0.23633 -0.25732,0.39844 -0.48926,0.39844zM21.02295,11.46875l-0.0874,0.35205c-0.32129,1.2832 -1.46875,2.1792 -2.79102,2.1792h-1.85352l-0.30859,1.13135c-0.06055,0.22266 -0.26221,0.36865 -0.48193,0.36865c-0.04395,0 -0.08789,-0.00537 -0.13184,-0.01758c-0.2666,-0.07275 -0.42383,-0.34766 -0.35107,-0.61377l1.5,-5.5c0.05957,-0.21777 0.25684,-0.36865 0.48242,-0.36865h2.09619c0.61621,0 1.18652,0.27832 1.56592,0.76416c0.37891,0.48535 0.51074,1.10693 0.36084,1.70459z"></path></g></g></g></svg>